<svg aria-hidden="true" style="width:0;height:0;position:absolute;overflow:hidden" xmlns="http://www.w3.org/2000/svg"><defs><symbol id="icon-calendar_today" viewBox="0 0 32 32"><path fill="#fff" style="fill:var(--color1,#fff)" d="M25.736 3.918h-1.287V1.344h-2.574v2.574H9.007V1.344H6.433v2.574H5.146a2.582 2.582 0 0 0-2.574 2.574v20.589a2.581 2.581 0 0 0 2.574 2.574h20.589a2.581 2.581 0 0 0 2.574-2.574V6.492a2.581 2.581 0 0 0-2.574-2.574zm0 23.163H5.147V10.352h20.589v16.729z"/></symbol><symbol id="icon-gg_time-1" viewBox="0 0 32 32"><path fill="#fff" style="fill:var(--color1,#fff)" d="M11.459 9.134h2.546V15.5h6.366v2.546h-8.912V9.134z"/><path fill="#fff" style="fill:var(--color1,#fff)" d="M28.01 15.499c0-7.032-5.7-12.732-12.732-12.732S2.546 8.467 2.546 15.499c0 7.032 5.7 12.732 12.732 12.732s12.732-5.7 12.732-12.732zm-2.547 0a10.186 10.186 0 1 1-20.371 0 10.186 10.186 0 0 1 20.371 0z"/></symbol><symbol id="icon-gg_time" viewBox="0 0 32 32"><path fill="#fff" style="fill:var(--color1,#fff)" d="M24.852 6.519c-5.358-5.358-14.031-5.359-19.39 0s-5.359 14.031 0 19.39c5.358 5.358 14.031 5.359 19.39 0s5.359-14.031 0-19.39zm-.573 17.436a13.777 13.777 0 0 0-2.048-1.517c.477-1.649.76-3.464.827-5.35h4.031a11.851 11.851 0 0 1-2.81 6.867zM3.225 17.088h4.031c.067 1.886.35 3.701.827 5.35-.722.437-1.408.944-2.048 1.517a11.851 11.851 0 0 1-2.81-6.867zm2.81-8.614c.641.573 1.326 1.08 2.048 1.517-.477 1.649-.76 3.464-.827 5.35H3.225a11.851 11.851 0 0 1 2.81-6.867zm8.248 1.697a11.875 11.875 0 0 1-4.073-1.032c.741-1.908 2.106-4.196 4.073-4.763v5.794zm0 1.751v3.419H9.004c.06-1.596.287-3.128.663-4.53a13.599 13.599 0 0 0 4.616 1.111zm0 5.166v3.419c-1.612.1-3.169.478-4.616 1.111a20.615 20.615 0 0 1-.663-4.53h5.279zm0 5.17v5.794c-1.966-.567-3.332-2.855-4.073-4.762a11.875 11.875 0 0 1 4.073-1.032zm1.748 0c1.425.102 2.799.453 4.073 1.032-.741 1.908-2.106 4.195-4.073 4.762v-5.794zm0-1.751v-3.419h5.279a20.615 20.615 0 0 1-.663 4.53 13.604 13.604 0 0 0-4.616-1.111zm0-5.167v-3.419c1.612-.1 3.169-.478 4.616-1.111.376 1.402.602 2.934.663 4.53h-5.279zm0-5.169V4.377c1.966.567 3.332 2.855 4.073 4.763-1.274.579-2.648.93-4.073 1.032zm3.924-4.922a11.917 11.917 0 0 1 3.097 1.978c-.445.393-.915.748-1.406 1.067-.436-1.079-.992-2.127-1.692-3.045zM8.667 8.293a11.96 11.96 0 0 1-1.406-1.067 11.917 11.917 0 0 1 3.097-1.978c-.699.918-1.256 1.966-1.692 3.045zm0 15.842c.436 1.079.992 2.127 1.692 3.045a11.917 11.917 0 0 1-3.097-1.978c.445-.393.915-.749 1.406-1.067zm12.98 0c.491.318.96.674 1.406 1.067a11.917 11.917 0 0 1-3.097 1.978c.699-.918 1.256-1.966 1.692-3.045zm1.411-8.795c-.067-1.886-.35-3.701-.827-5.35a13.777 13.777 0 0 0 2.048-1.517 11.851 11.851 0 0 1 2.81 6.867h-4.031z"/></symbol></defs></svg>